<svg version="1" xmlns="http://www.w3.org/2000/svg" width="202.667" height="202.667" viewBox="0 0 152.000000 152.000000"><path d="M75.2 3.2l3.7 3.3-1.4 4c-2.3 6.4-1.9 6.9 3.1 3.4l4.6-3.1 4.9 3.1c2.7 1.6 4.9 2.7 4.9 2.2 0-.4-.6-2.9-1.4-5.4L92.2 6l3.6-3 3.7-3h-28l3.7 3.2zM14.1 17.2c-.6 1.6-1.5 3.9-2.1 5.3-.8 2.1-1.6 2.5-5.2 2.6-2.4.1-4.6.1-5 0-1.9-.3-.5 2 2.8 4.5 3.8 2.9 4 4.2 1.7 12.3-.6 2.4-.5 2.3 4.1-.8l4.7-3.3 4.7 3.1c2.5 1.6 4.7 2.9 4.9 2.8.1-.2-.4-2.6-1.2-5.5L22.2 33l3.9-3.2c4.9-4 4.6-4.4-3.1-4.7-2.4-.1-4-.6-4.1-1.4 0-.6-.9-3-1.9-5.2l-1.8-4-1.1 2.7zM92.1 21.7c1.5 4.2 5.3 10.4 15.1 25.1 5.1 7.6 8.7 14 8.4 14.8-.3.8-1.6 1.8-2.8 2.3-1.3.5-6.1 2.7-10.8 4.9-4.7 2.2-10.5 4.9-13 6-2.5 1.1-13 5.9-23.5 10.7-10.4 4.8-20.1 8.7-21.5 8.7-2.1 0-32.7-10.5-41.8-14.2-2-.9-2.2-.7-2.2 1.9 0 2.8.2 2.9 20 9.6 11 3.7 20 7.2 20 7.9 0 .6-4.4 7.6-9.9 15.6l-9.8 14.5-5.9.2c-3.3 0-7.8.2-10.1.2L0 130v9.9l56.7-.4c31.3-.2 65.5-.4 76.1-.4 16.4-.1 19.2-.3 19.2-1.6 0-.8-.3-1.6-.7-1.6-1.2-.2-6.9-.6-19.3-1.3-6.3-.4-14.4-.8-18-1.1-3.6-.2-11.4-.7-17.5-1-26.5-1.4-60.9-3.5-61.2-3.9-.1-.1 5.2-5.6 11.8-12.2l11.9-12 10.3 3.4c5.6 1.8 10.6 3.8 11.1 4.2.6.6-1.1 4.2-4.2 8.9-5.8 9.1-6.5 9 10.2 1.1l11-5.2 11.5 4.1c6.3 2.2 11.7 3.9 11.8 3.7.2-.1-4-2-9.3-4.2-5.2-2.1-9.7-4.1-9.9-4.5-.4-.5 12.3-6.9 33.3-16.5l7.3-3.4 4.7 6.5 4.7 6.6.3-4.7c.2-2.9-.2-5.4-1.2-6.9-1.3-2-1.3-2.4-.1-2.9 1.5-.5 2.2-6.5.8-6.7-9.6-.8-11.8-2-14.9-8l-2.3-4.7 7.2-3c3.9-1.6 8-3.2 9-3.5 1.3-.5 1.7-1.8 1.7-5.7v-5l-6.7.5c-3.8.3-10.7.7-15.4 1.1l-8.7.5-4.8-7.3c-5-7.7-24.3-33.8-25-33.8-.2 0 .1 1.2.7 2.7zm39.3 61c2 2.5 3.6 4.9 3.6 5.3 0 .9-2.6 2-30.4 13.4l-20.5 8.5-5.8-2.3c-9.2-3.6-14-6.4-12.3-7 .8-.3 14.8-5.5 31-11.5 16.2-6.1 29.8-11 30.1-11.1.4 0 2.3 2.1 4.3 4.7z"/></svg>